<svg xmlns="http://www.w3.org/2000/svg" width="100" height="100"><path d="M49.621 3.971c-25.353 0-45.979 20.625-45.979 45.978s20.626 45.978 45.979 45.978c25.352 0 45.977-20.625 45.977-45.978S74.973 3.971 49.621 3.971zm0 89.955c-24.25 0-43.979-19.728-43.979-43.978S25.371 5.971 49.621 5.971c24.249 0 43.977 19.728 43.977 43.978S73.87 93.926 49.621 93.926z"/><path d="M50.474 61.252c-4.173 0-7.441 2.37-7.441 5.395 0 3.024 3.269 5.393 7.441 5.393s7.442-2.369 7.442-5.393c0-3.025-3.27-5.395-7.442-5.395zm0 8.787c-2.949 0-5.441-1.554-5.441-3.393 0-1.84 2.492-3.395 5.441-3.395 2.95 0 5.442 1.555 5.442 3.395 0 1.839-2.492 3.393-5.442 3.393zm-1.061-27.207a6.453 6.453 0 0 0 6.445-6.446 6.453 6.453 0 0 0-6.445-6.445 6.452 6.452 0 0 0-6.446 6.445 6.453 6.453 0 0 0 6.446 6.446zm0-10.892a4.45 4.45 0 0 1 4.445 4.445 4.45 4.45 0 0 1-4.445 4.446 4.451 4.451 0 0 1-4.446-4.446 4.45 4.45 0 0 1 4.446-4.445z"/><path d="M58.135 56.521c-.984-.345-2.95-.917-3.012-.935-2.822-.889-5.697-2.02-5.629-3.663.042-1.022.699-1.525 2.52-1.977 4.374-.682 7.564-2.509 9.482-5.428 2.612-3.976 2.09-8.943 1.663-11.186.176-.047.35-.096.524-.144.521-.145 1.012-.282 1.538-.38a.998.998 0 0 0 .816-.983v-8.024a1 1 0 0 0-1.531-.849c-1.391.87-2.91 1.292-4.645 1.292-1.768 0-3.479-.422-5.135-.83-1.013-.25-1.97-.486-2.875-.605-7.734-1.021-14.085 2.772-16.082 9.448-1.682 5.62.313 11.592 4.979 15.234-.796.943-1.717 2.567-1.717 5.036 0 2.253.731 3.818 1.471 4.824-3.688 2.405-6.013 6.158-6.013 9.837 0 6.348 7.092 11.513 15.81 11.513 8.717 0 15.809-5.165 15.809-11.513.001-5.371-2.533-8.761-7.973-10.667zm-7.834 20.181c-7.614 0-13.81-4.268-13.81-9.513 0-3.251 2.428-6.756 6.041-8.721a1.002 1.002 0 0 0 .195-1.62c-.633-.573-1.693-1.896-1.693-4.321 0-2.75 1.431-4.021 1.869-4.345a1 1 0 0 0-.046-1.641c-4.707-3.093-6.735-8.475-5.169-13.711 1.185-3.96 4.861-8.192 11.628-8.192.736 0 1.503.052 2.276.153.796.105 1.7.328 2.658.564 1.688.417 3.603.888 5.613.888 1.507 0 2.886-.264 4.175-.802v5.58c-.306.076-.602.159-.892.239-.449.125-.898.251-1.376.348a1 1 0 0 0-.767 1.231c.272 1.052 1.497 6.508-1.178 10.58-1.596 2.428-4.327 3.958-8.205 4.567-1.3.321-4.006.987-4.124 3.854-.131 3.133 3.559 4.561 7.047 5.66.02.005 1.997.581 2.93.908 4.652 1.629 6.637 4.255 6.637 8.78-.001 5.246-6.195 9.514-13.809 9.514z"/></svg>